<?xml version="1.0" encoding="UTF-8"?>
<svg id="Capa_2" data-name="Capa 2" xmlns="http://www.w3.org/2000/svg" xmlns:xlink="http://www.w3.org/1999/xlink" viewBox="0 0 184.13 184.13">
  <defs>
    <style>
      .cls-1 {
        fill: #fff;
      }

      .cls-2 {
        fill: url(#Degradado_sin_nombre_65);
      }
    </style>
    <linearGradient id="Degradado_sin_nombre_65" data-name="Degradado sin nombre 65" x1="0" y1="92.07" x2="184.13" y2="92.07" gradientUnits="userSpaceOnUse">
      <stop offset="0" stop-color="#2b4898"/>
      <stop offset=".5" stop-color="#3460aa"/>
      <stop offset="1" stop-color="#4b77bb"/>
    </linearGradient>
  </defs>
  <g id="Capa_2-2" data-name="Capa 2">
    <rect class="cls-2" width="184.13" height="184.13" rx="17.22" ry="17.22"/>
    <path class="cls-1" d="M138.88,68.02c-.54-2.42-4.12-1.91-6.24-1.9-1.46.16-3.11-.08-4.12.36-1.79.86-1.21,2.77-1.3,4.49,0,3.94,0,10.89,0,12.82.06.87-.35,1.65-1.1,2.17-1.17.69-2.21.27-3.69.38-3.52,0-11.08,0-13.51,0-2.66,0-2.37,2.82-2.45,4.94-.05,2.25-.66,6.66,2.56,6.5,2.09,0,10.17,0,14.04,0,1.16.04,2.06-.13,2.82.24.79.43,1.38,1.3,1.32,2.2,0,2.22,0,12.74,0,15.2-.06,2.73,2.7,2.53,4.95,2.57,2.6.09,5.6.32,6.54-1.25.52-1.18.16-2.21.26-3.59,0-3.94,0-10.89,0-12.82-.02-.68.13-1.26.66-1.79.55-.6,1.16-.79,1.9-.76,1.92,0,8.72,0,12.63,0,1.51-.14,2.79.41,3.98-.56,1.34-1.38.65-3.46.94-5.32-.01-2.13.39-5.01-2-5.48-.68-.1-1.43-.1-2.12-.11-2.05-.02-4.37.02-6.58.08-10.38.27-9.68.56-9.42-10.35.03-2.64.16-5.27-.03-7.87l-.03-.15Z"/>
    <path class="cls-1" d="M98.53,75.85c-19.18-31.28-69.06-5.65-54.28,27.32,3.95,9.73,12.79,17.14,22.96,18.82,12.17,2.15,24.47-3.19,31.18-14.12.32-.61,1.15-1.58.27-1.91-1.77-.54-8.05-2.26-10.22-2.88-.79-.23-1.22-.01-1.95.69-12.44,12.36-32.54,3.97-31.71-13.77.73-15.46,23.36-21.36,32.55-8.64l11.2-5.51Z"/>
  </g>
</svg>