<?xml version="1.0" encoding="UTF-8"?>
<svg id="CodePlus_Logo" data-name="CodePlus Logo" xmlns="http://www.w3.org/2000/svg" xmlns:xlink="http://www.w3.org/1999/xlink" viewBox="0 0 312.14 82.6">
  <defs>
    <style>
      .cls-logo-gradient {
        fill: url(#codeplus-gradient);
      }
    </style>
    <linearGradient id="codeplus-gradient" x1="0" y1="41.3" x2="312.14" y2="41.3" gradientUnits="userSpaceOnUse">
      <stop offset="0" stop-color="#2b4898"/>
      <stop offset=".5" stop-color="#3460aa"/>
      <stop offset="1" stop-color="#4b77bb"/>
    </linearGradient>
  </defs>
  <g id="CodePlus_Main">
    <path class="cls-logo-gradient" d="M171.69,27V0h12.75v57.38c-8.66,40.99-70.38,27.12-59.64-13.89,5.57-20.1,29.93-28.02,46.89-16.48ZM154.06,34.18c-23.51,0-23.13,35.73,0,35.64,23.35-.1,23.27-35.63,0-35.64ZM248.94,57l-47.25.75c4.35,13.14,20.99,15.9,30.36,6.21l11.64,4.3c-3.18,7.56-13.7,13.13-21.58,14.03-31.66,3.63-47.04-38.45-20.35-55.6,22.92-14.73,50.02,4.18,47.19,30.31ZM234.69,45.75c-4.83-15.76-27.9-14.82-33,.37l33-.37ZM84.51,21.94c42.97-5.87,47.37,56.64,8.71,60.46-40.21,3.97-45.82-55.39-8.71-60.46ZM85.99,35.43c-18.87,3.21-16.77,34.24,4.21,33.52,23.04-.8,21.25-37.85-4.21-33.52ZM56.61,35.86C37.74,4.77-12.41,29.78,2.85,63.63c10.47,24.15,42.43,25.17,54.59,2.51l-11.91-3.35c-9.05,10.39-25.99,9.07-31.08-4.46-8.09-21.52,20.25-31.82,30.96-16.96M290.27,26.21h-8.01c-1.03,0-1.86.83-1.86,1.86v16.44c0,1.03-.83,1.86-1.86,1.86h-16.98c-1.03,0-1.86.83-1.86,1.86v7.71c0,1.03.83,1.86,1.86,1.86h16.98c1.03,0,1.86.83,1.86,1.86v16.44c0,1.03.83,1.86,1.86,1.86h8.01c1.03,0,1.86-.83,1.86-1.86v-16.44c0-1.03.83-1.86,1.86-1.86h16.29c1.03,0,1.86-.83,1.86-1.86v-7.71c0-1.03-.83-1.86-1.86-1.86h-16.29c-1.03,0-1.86-.83-1.86-1.86v-16.44c0-1.03-.83-1.86-1.86-1.86Z"/>
  </g>
</svg>