<?xml version="1.0" encoding="UTF-8"?>
<svg id="Capa_2" data-name="Capa 2" xmlns="http://www.w3.org/2000/svg" viewBox="0 0 312.63 82.79">
  <defs>
    <style>
      .cls-1 {
        fill: #9d9d9c;
      }
    </style>
  </defs>
  <g id="Capa_2-2" data-name="Capa 2">
    <path class="cls-1" d="M171.75,26.77c.18.07.27.05.3-.07.1-2.45-.11-24.14.08-26.56,3.36-.29,7.94-.02,11.52-.11,1.55,0,1.1-.02,1.18.63.02,11.81-.02,47.61,0,56.5-10.67,47.47-81.35,19.87-55.57-22.41,9.3-13.56,28.58-17.02,42.42-8.02l.08.04ZM154.32,34.21c-24.63-.15-22.16,39.28,2.97,35.44,13.79-1.49,18.86-19.22,10.72-29.3-2.77-3.68-8-6.21-13.47-6.14h-.23ZM249.33,56.65c-2.38,1.11-42.63.73-46.86,1.14-.32-.04-.36.14-.04.97,4.57,11.92,20.14,14.5,29.29,5.95.52-.41.89-.57,1.4-.43,1.83.64,8.45,3.09,10.25,3.78.85.34.17,1.28-.16,1.89-3.11,5.35-9.82,9.51-16.1,11.39-12.43,3.79-26.3-1.44-33.14-12.06-7.5-10.99-7.63-26.67,1.5-36.88,20.51-23.28,57.15-5.83,53.88,24.13l-.02.1ZM235.03,45.4c-4.68-15.28-28.71-14.22-32.87.75,2.33,0,20.39-.22,26.5-.28,3.24-.04,5.65-.06,6.28-.07.15-.03.13-.13.1-.3l-.02-.1ZM85.05,21.96c52-4.67,42.68,74.2-6.04,58.85-17.8-6.35-23.93-29.89-14.84-45.44,3.81-6.85,11.48-12.24,20.65-13.38l.23-.03ZM86.33,35.47c-5.08.87-8.77,3.86-10.81,7.71-5.66,10.43.53,25.54,13.36,25.79,24.76,1.35,23.17-38.19-2.33-33.54l-.22.04ZM56.98,35.9C37.79,4.62-12.08,30.25,2.7,63.22c3.95,9.73,12.79,17.14,22.96,18.82,12.17,2.15,24.47-3.19,31.18-14.12.32-.61,1.15-1.58.27-1.91-1.77-.54-8.05-2.26-10.22-2.88-.79-.23-1.22-.01-1.95.69-12.44,12.36-32.54,3.97-31.71-13.77.73-15.46,23.36-21.36,32.55-8.64M292.43,28.07c-.54-2.42-4.12-1.91-6.24-1.9-1.46.16-3.11-.08-4.12.36-1.79.86-1.21,2.77-1.3,4.49,0,3.94,0,10.89,0,12.82.06.87-.35,1.65-1.1,2.17-1.17.69-2.21.27-3.69.38-3.52,0-11.08,0-13.51,0-2.66,0-2.37,2.82-2.45,4.94-.05,2.25-.66,6.66,2.56,6.5,2.09,0,10.17,0,14.04,0,1.16.04,2.06-.13,2.82.24.79.43,1.38,1.3,1.32,2.2,0,2.22,0,12.74,0,15.2-.06,2.73,2.7,2.53,4.95,2.57,2.6.09,5.6.32,6.54-1.25.52-1.18.16-2.21.26-3.59,0-3.94,0-10.89,0-12.82-.02-.68.13-1.26.66-1.79.55-.6,1.16-.79,1.9-.76,1.92,0,8.72,0,12.63,0,1.51-.14,2.79.41,3.98-.56,1.34-1.38.65-3.46.94-5.32-.01-2.13.39-5.01-2-5.48-.68-.1-1.43-.1-2.12-.11-2.05-.02-4.37.02-6.58.08-10.38.27-9.68.56-9.42-10.35.03-2.64.16-5.27-.03-7.87l-.03-.15Z"/>
  </g>
</svg>